<?xml version="1.0"?>
<svg width="640" height="400" xmlns="http://www.w3.org/2000/svg" xmlns:svg="http://www.w3.org/2000/svg">
 <!-- Created with SVG-edit - https://github.com/SVG-Edit/svgedit-->
 <title>Logo Wilmer Quijano</title>
 <g class="layer">
  <title>Layer 1</title>
  <rect fill="none" height="0" id="svg_6" stroke="#000000" stroke-dasharray="null" stroke-linecap="null" stroke-linejoin="null" stroke-width="5" width="2" x="-33.5" y="149.5"/>
  <g id="svg_10">
   <path d="m129.194747,28.16708c297.466824,78.555366 363.981144,65.767283 363.057334,64.853849c-0.92381,-0.913434 296.543014,-37.450814 43.419071,126.967394c-253.123943,164.418208 -201.390582,195.474981 -282.685863,160.76447c-81.295281,-34.710511 -155.200082,-107.78527 -149.657222,-144.322649c5.54286,-36.53738 -149.657222,-228.358622 -79.447661,-222.878015c70.209561,5.480607 105.314341,14.614952 105.314341,14.614952l0,-0.000001z" fill="#7f007f" id="svg_1" stroke="#000000" stroke-dasharray="null" stroke-linecap="null" stroke-linejoin="null" stroke-width="5"/>
   <text fill="#ffaaff" font-family="Fantasy" font-size="40" id="svg_3" stroke="#000000" stroke-dasharray="null" stroke-linecap="null" stroke-linejoin="null" stroke-width="0" text-anchor="middle" transform="matrix(4.85468 0 0 4.64465 -524.487 -319.047)" x="144.08302" xml:space="preserve" y="117.244477">W</text>
   <text fill="#000000" font-family="Fantasy" font-size="30" id="svg_5" stroke="#000000" stroke-dasharray="null" stroke-linecap="null" stroke-linejoin="null" stroke-width="0" text-anchor="middle" transform="matrix(4.85468 0 0 4.64465 -524.487 -319.047)" x="158.463605" xml:space="preserve" y="123.851149">Q</text>
   <text fill="#ffffff" font-family="Fantasy" font-size="40" id="svg_8" stroke="#000000" stroke-dasharray="null" stroke-linecap="null" stroke-linejoin="null" stroke-width="0" text-anchor="middle" transform="matrix(1.84762 0 0 1.82687 -453.327 -338.446)" x="458.281983" xml:space="preserve" y="310.678308">uiijano</text>
  </g>
 </g>
</svg>